<?xml version="1.0" encoding="UTF-8" standalone="no"?>
<!-- Created with Inkscape (http://www.inkscape.org/) -->

<svg
   xmlns:dc="http://purl.org/dc/elements/1.1/"
   xmlns:cc="http://creativecommons.org/ns#"
   xmlns:rdf="http://www.w3.org/1999/02/22-rdf-syntax-ns#"
   xmlns:svg="http://www.w3.org/2000/svg"
   xmlns="http://www.w3.org/2000/svg"
   xmlns:sodipodi="http://sodipodi.sourceforge.net/DTD/sodipodi-0.dtd"
   xmlns:inkscape="http://www.inkscape.org/namespaces/inkscape"
   width="240.00002mm"
   height="79.999771mm"
   viewBox="0 0 850.39375 283.46375"
   id="svg2"
   version="1.1"
   inkscape:version="0.91 r13725">
  <defs
     id="defs4">
    <clipPath
       id="clipPath4171"
       clipPathUnits="userSpaceOnUse">
      <path
         inkscape:connector-curvature="0"
         id="path4173"
         d="m 0,226.771 680.314,0 L 680.314,0 0,0 0,226.771 Z" />
    </clipPath>
  </defs>
  <sodipodi:namedview
     id="base"
     pagecolor="#ffffff"
     bordercolor="#666666"
     borderopacity="1.0"
     inkscape:pageopacity="0.0"
     inkscape:pageshadow="2"
     inkscape:zoom="0.98994949"
     inkscape:cx="313.57822"
     inkscape:cy="46.713886"
     inkscape:document-units="px"
     inkscape:current-layer="layer1"
     showgrid="false"
     fit-margin-top="0"
     fit-margin-left="0"
     fit-margin-right="0"
     fit-margin-bottom="0"
     inkscape:window-width="3840"
     inkscape:window-height="2096"
     inkscape:window-x="0"
     inkscape:window-y="27"
     inkscape:window-maximized="1" />
  <metadata
     id="metadata7">
    <rdf:RDF>
      <cc:Work
         rdf:about="">
        <dc:format>image/svg+xml</dc:format>
        <dc:type
           rdf:resource="http://purl.org/dc/dcmitype/StillImage" />
        <dc:title></dc:title>
      </cc:Work>
    </rdf:RDF>
  </metadata>
  <g
     inkscape:label="Ebene 1"
     inkscape:groupmode="layer"
     id="layer1"
     transform="translate(128.05402,366.51248)">
    <path
       inkscape:connector-curvature="0"
       id="path4177"
       style="fill:#ce291d;fill-opacity:1;fill-rule:nonzero;stroke:none"
       d="m 667.79923,-133.92273 -13.93875,0 -11.90625,-0.50125 c -10.04875,0 -19.60625,-0.0888 -28.66875,-1.1975 -9.0625,-1.10375 -17.325,-2.9075 -24.7825,-5.41875 -9.75125,-3.245 -17.44125,-7.925 -23.0775,-14.0475 -5.63625,-6.11875 -8.45375,-14.1925 -8.45375,-24.2225 0,-9.14375 3.3125,-16.81125 9.935,-23.0075 6.62625,-6.19875 14.205,-10.8425 22.7325,-13.93875 11.42375,-4.2775 25.51375,-7.56125 42.26625,-9.84375 16.7525,-2.28375 29.1925,-3.07625 35.89375,-3.37 l -0.002,26.54875 0,7.66875 0,46.52625 0.002,14.80375 z m 27.8425,-152.79625 c -4.415,-11.27875 -10.9625,-20.75875 -19.64125,-28.4275 -9.2925,-8.11 -20.98375,-13.97625 -35.07375,-17.59 -14.085,-3.61 -30.03,-5.41875 -48.00125,-5.41875 -11.72625,0 -21.06375,-0.0175 -27.85125,-0.0125 -1.595,0 -2.8925,0.002 -3.9525,0.004 l -13.28625,23.01375 20.55125,0 21.3575,0 c 10.965,0 17.135,0.3875 25.35625,1.4975 8.225,1.10375 15.7575,3.18125 22.26375,6.25125 10.045,4.7325 15.79375,9.835 20.82625,17.20875 5.02625,7.37625 8.69,22.66875 9.60875,34.17125 -21.17125,1.62375 -40.73375,3.52125 -57.25375,6.6925 -16.52625,3.16875 -29.73875,6.745 -39.63625,10.72875 -15.84,6.34375 -28.21375,14.635 -37.1275,24.88875 -8.90875,10.2525 -13.35875,22.37875 -13.35875,36.3875 0,13.2775 3.77,24.6375 11.3025,34.07 7.54375,9.44 17.40375,16.89125 29.58875,22.3425 9.13875,4.13375 19.82125,9.52375 32.67125,9.515 37.96625,-0.015 25.4775,-0.015 37.96625,-0.015 l 69.85625,0 0,-36.92875 0,-89.37625 c 0,-21.3825 -1.745,-37.7175 -6.16625,-49.0025" />
    <path
       inkscape:connector-curvature="0"
       id="path4181"
       style="fill:#ffffff;fill-opacity:1;fill-rule:nonzero;stroke:none"
       d="m 255.26685,-141.33248 c -46.08125,26.61375 -105.0025,10.8225 -131.60875,-35.2675 -26.6025,-46.08875 -10.81625,-105.0225 35.265,-131.63375 46.08125,-26.61 105.005,-10.81875 131.61,35.2725 l 3.97875,7.705 c 20.7775,44.76125 4.30625,98.77625 -39.245,123.92375 m 249.58125,-196.835 -111.26875,192.755 -88.32375,-136.04875 c -31.29875,-54.22875 -100.62,-72.80375 -154.8325,-41.50125 -54.2125,31.30875 -72.78875,100.63875 -41.485,154.8625 31.29625,54.225 100.61875,72.8 154.83,41.5 33.52625,-19.36375 53.40125,-53.27125 56.30125,-89.14875 l 53.875,104.35 39.27,0 130.905,-226.76875 -39.27125,0 z" />
    <path
       inkscape:connector-curvature="0"
       id="path4185"
       style="fill:#ffffff;fill-opacity:1;fill-rule:nonzero;stroke:none"
       d="m -8.198645,-338.16585 -7.19875,0 -7.2,0 c -19.77375,0 -36.805,6.71375 -50.33375,17.08375 l 0,-17.08375 -34.592505,0 0,226.77125 34.592505,0 0,-146.43875 0.13375,0 c 2.68375,-25.97125 27.35125,-46.315 57.39875,-46.315 l 0.0013,0 0,0 c 30.0475,0 54.84875,20.34375 57.5325,46.315 l 0,146.43875 34.5925,0 0,-146.43875 c -1.92,-36.945 -34.59125,-80.3325 -84.92625,-80.3325" />
    <path
       inkscape:connector-curvature="0"
       id="path4189"
       style="fill:#ffffff;fill-opacity:1;fill-rule:nonzero;stroke:#ffffff;stroke-width:4.4;stroke-miterlimit:4;stroke-dasharray:none;stroke-opacity:1"
       d="m 286.20435,-224.78948 c 0.9825,-3.24625 1.6125,-5.42875 2.2325,-7.76875 -0.045,-0.4675 -0.0875,-0.93625 -0.13875,-1.4025 0.0475,0.4725 0.0975,0.9425 0.13875,1.40125 l 0,0.001 c 0.24625,2.56375 0.39,5.15125 0.39,7.7775 0,3.28375 -0.2175,6.5225 -0.59625,9.70125 0.0788,-0.65375 0.135,-1.31625 0.1975,-1.98125 -0.6175,-2.31375 -1.2475,-4.4925 -2.22375,-7.72875 m -15.6425,51.40375 c -0.22125,0.27625 -0.44625,0.54625 -0.67125,0.81625 0.2275,-0.27125 0.44375,-0.5525 0.6675,-0.8275 -0.89875,-2.2675 -1.68875,-4.255 -2.96375,-7.4 3.37625,-5.45625 5.25,-8.13625 7.72875,-13.935 3.8475,-0.635 5.92875,-1.04625 8.39625,-1.705 0.19375,-0.51875 0.3625,-1.0425 0.54375,-1.56875 -2.70125,0.70625 -4.7975,1.11375 -8.90125,1.77 -2.18375,-5.06875 -3.35,-7.7425 -5.84125,-13.3 2.6725,-5.91625 3.9125,-8.84125 6.20625,-14.47125 4.5775,-0.0175 6.58875,-0.0275 9.82,-0.0563 1.19875,3.845 1.895,6.19375 2.675,9.05875 -1.875,15.66875 -8.1925,29.96875 -17.66375,41.6075 0.001,0.004 0.002,0.008 0.004,0.0113 m -22.16125,18.9675 c -0.11125,0.0662 -0.2175,0.13625 -0.33,0.20125 -0.09,0.0513 -0.18125,0.0975 -0.27125,0.1475 -7.07,4.055 -14.7975,7.09375 -22.995,8.88625 -0.50375,-0.004 -1.0125,-0.004 -1.56375,-0.001 -0.63875,-0.67875 -0.9675,-1.03625 -1.6425,-1.78875 -1.87625,-2.0975 -2.8875,-3.29875 -5.03375,-5.9425 3.4,-3.65 5.20375,-5.74 8.875,-10.3325 6.6175,-0.12125 10.16875,0.315 16.22375,-0.48875 1.4775,2.57875 2.17,3.78625 3.47375,6.05375 0.80625,1.40875 1.19125,2.0775 1.94125,3.38125 -0.38125,0.43125 -0.74125,0.83625 -1.08625,1.21625 0.6025,-0.32375 1.2075,-0.645 1.8075,-0.98375 0.20125,-0.115 0.40125,-0.23125 0.60125,-0.34875 0.4225,-0.2525 0.83875,-0.5125 1.26,-0.7675 -0.41,0.0563 -0.8325,0.1175 -1.28125,0.185 -1.945,-3.45 -2.9925,-5.3325 -5.3625,-9.5475 3.665,-5.0325 5.51,-7.75125 9.15875,-13.31125 6.03875,-0.73875 8.91875,-1.1575 14.21375,-2.05625 1.36625,3.295 2.185,5.32875 3.15875,7.74125 -5.97125,7.05375 -13.12625,13.06375 -21.1475,17.75625 m -26.81875,9.86375 c -4.63125,0.8175 -9.385,1.26875 -14.2525,1.26875 -24.9725,0 -47.305,-11.2425 -62.2475,-28.93375 -0.32625,-0.38375 -0.6575,-0.765 -0.97875,-1.1575 0.004,-0.009 0.006,-0.0162 0.01,-0.0238 -5.90125,-7.25625 -10.57625,-15.5425 -13.71625,-24.555 -0.007,-0.02 -0.015,-0.0375 -0.0213,-0.0575 l 0.001,0 c -1.88375,-5.41875 -3.23,-11.09 -3.935,-16.96 0.78125,-2.87375 1.48125,-5.23625 2.685,-9.09 3.2275,0.0288 5.23625,0.0387 9.815,0.0563 2.29125,5.63 3.53125,8.555 6.205,14.47125 -0.91375,2.04375 -1.36,3.0575 -2.2325,5.0375 -1.50375,3.4 -2.225,5.05375 -3.61,8.2575 -4.1175,-0.6575 -6.21375,-1.05875 -8.9275,-1.7725 0.006,0.02 0.0125,0.0387 0.02,0.0575 0.17625,0.51125 0.35875,1.01375 0.54625,1.515 2.47125,0.65875 4.55375,1.06625 8.405,1.705 2.4775,5.79625 4.35125,8.475 7.725,13.93125 -1.275,3.14375 -2.0625,5.1325 -2.96,7.40375 0.32125,0.395 0.64,0.7925 0.96875,1.18125 0.0112,0.0138 0.0238,0.0275 0.035,0.0425 0.97625,-2.41 1.7975,-4.4425 3.1625,-7.73875 5.29375,0.90625 8.17625,1.32375 14.2125,2.06 3.65125,5.55625 5.4975,8.275 9.1625,13.3075 -0.4425,0.78375 -0.65625,1.17875 -1.08125,1.93 -1.8575,3.305 -2.7025,4.80875 -4.28875,7.6175 -0.4825,-0.0725 -0.94125,-0.1375 -1.38125,-0.20375 1.26125,0.7675 2.5425,1.4925 3.83875,2.1875 -0.34875,-0.38375 -0.7225,-0.80375 -1.15125,-1.285 1.9575,-3.39625 3.01875,-5.25 5.41625,-9.435 6.05875,0.80375 9.60875,0.3675 16.225,0.48875 1.625,2.03 2.42625,3.01125 4.00375,4.86375 1.995,2.33625 2.97125,3.4375 4.87,5.46875 -2.92,3.6025 -4.2675,5.17125 -6.67875,7.73125 -0.53625,-0.002 -1.03,-0.002 -1.52375,0 1.04625,0.2275 2.10375,0.425 3.16125,0.6125 -0.12375,-0.0888 -0.2225,-0.16 -0.35,-0.255 1.09625,-1.12 1.67375,-1.7425 2.87625,-3.085 1.47125,-1.64125 2.24125,-2.54 3.86125,-4.495 6.2975,0.04 9.465,0.04 15.765,0 2.94125,3.54875 4.305,5.09375 6.7375,7.58 -0.13625,0.1025 -0.2475,0.17875 -0.3725,0.2725 m -95.36,-72.4325 c 0.006,-0.0188 0.01,-0.0388 0.0162,-0.06 -0.245,-2.5475 -0.40375,-5.12 -0.40375,-7.73375 0,-3.28625 0.21625,-6.52625 0.595,-9.70875 -0.075,0.64 -0.13375,1.29 -0.195,1.93125 0.62125,2.3425 1.25125,4.52625 2.23,7.76875 -0.97625,3.2425 -1.605,5.425 -2.22625,7.7425 0.0438,0.4625 0.0675,0.93 0.11875,1.39125 -0.0463,-0.44375 -0.0912,-0.89 -0.135,-1.33125 m 17.8825,-59.2025 c 0.2075,-0.25625 0.41875,-0.51375 0.6275,-0.76375 -0.2125,0.25375 -0.41375,0.5175 -0.62375,0.77375 0.90125,2.26875 1.68875,4.26125 2.965,7.4025 -3.37375,5.45625 -5.2475,8.135 -7.725,13.9325 -3.8525,0.6375 -5.935,1.05375 -8.4075,1.705 -0.1925,0.525 -0.36125,1.04625 -0.545,1.5725 2.705,-0.70625 4.80125,-1.1125 8.90875,-1.7725 2.185,5.06625 3.35375,7.7375 5.8425,13.2975 -2.67125,5.91625 -3.91375,8.845 -6.205,14.4725 -4.57875,0.0225 -6.5875,0.03 -9.815,0.0637 -1.205,-3.8525 -1.9,-6.215 -2.68375,-9.09875 1.8825,-15.6575 8.19875,-29.94625 17.665,-41.575 -0.001,-0.004 -0.002,-0.006 -0.004,-0.01 m 22.15375,-18.96 c 0.11,-0.0663 0.2175,-0.135 0.32875,-0.2 0.0913,-0.0525 0.185,-0.0987 0.27625,-0.15 7.08,-4.06 14.81875,-7.1 23.03,-8.88875 0.49625,0 0.995,0.001 1.53375,-0.002 2.41125,2.56125 3.75875,4.13125 6.67875,7.73375 -3.39875,3.64625 -5.20125,5.73875 -8.8725,10.3275 -6.6175,0.1275 -10.1675,-0.3075 -16.22625,0.495 -2.3975,-4.1825 -3.45875,-6.0425 -5.41625,-9.44 0.38125,-0.4275 0.73625,-0.82875 1.08,-1.20875 -0.6025,0.32375 -1.2075,0.64625 -1.8075,0.98375 -0.2025,0.115 -0.40375,0.2325 -0.605,0.35 -0.415,0.24875 -0.825,0.50375 -1.2375,0.75375 0.4075,-0.055 0.82125,-0.11375 1.26625,-0.18125 1.94875,3.455 2.99875,5.33375 5.3675,9.55125 -3.6625,5.02375 -5.51,7.7525 -9.16,13.30625 -6.0375,0.74375 -8.9175,1.155 -14.2125,2.06125 -1.3675,-3.2975 -2.18625,-5.33375 -3.1625,-7.74875 5.97,-7.0475 13.1225,-13.05375 21.13875,-17.7425 m 87.86875,85.625 c -0.10875,-0.22 -0.16,-0.3275 -0.27,-0.55375 -2.8525,-5.72 -4.34125,-8.68875 -7.46,-14.71125 3.11875,-6.02375 4.605,-8.99 7.4575,-14.72125 0.1125,-0.215 0.16375,-0.3175 0.2725,-0.54125 6.155,0.25125 9.06875,0.3975 14.32,0.73 2.71625,5.94375 3.97625,8.88125 6.315,14.5325 -2.33875,5.65125 -3.59875,8.5825 -6.315,14.53 -5.25125,0.33875 -8.165,0.48875 -14.32,0.735 m -8.52375,17.03125 c 3.58,-6.045 5.27125,-9.1775 8.48875,-15.35375 6.1575,-0.27875 9.07125,-0.4375 14.32875,-0.80625 2.52875,5.575 3.7125,8.24875 5.9425,13.32625 -0.58,1.3325 -0.875,1.99875 -1.4775,3.33125 -2.02875,4.4925 -3.6575,6.46875 -6.28625,10.69 -5.29625,0.88 -8.1875,1.28625 -14.24875,2.00125 -2.4075,-4.88375 -3.7725,-7.53625 -6.7475,-13.18875 m -27.99375,15.74375 c 3.66125,-5.3225 5.5725,-8.07625 9.2975,-14.14 7.11375,-0.195 10.6675,-0.325 17.27875,-0.7125 2.9875,5.65375 4.37375,8.30125 6.81625,13.17375 -3.65875,5.58875 -5.50875,8.33375 -9.16875,13.40625 -6.0875,0.795 -9.6475,0.385 -16.29625,0.515 -2.975,-4.54625 -4.5725,-7.01875 -7.9275,-12.2425 m -24.025,8.335 c 1.91625,-2.91375 2.91125,-4.4375 4.96,-7.59125 7.0125,0.08 10.56875,0.08 17.5825,0 3.3725,5.19625 4.98375,7.6525 7.97875,12.16 -1.0075,1.27375 -1.50875,1.89125 -2.5,3.1025 -2.60375,3.17 -3.8825,4.645 -6.32875,7.3275 -6.345,0.04 -9.53875,0.04 -15.88375,0 -3.37625,-3.69875 -5.17,-5.81125 -8.82625,-10.4325 1.17375,-1.76875 1.78125,-2.68125 3.0175,-4.56625 m -23.10125,-23.1875 c 6.6125,0.3875 10.16625,0.5175 17.28375,0.7125 3.7225,6.06375 5.6325,8.8175 9.29625,14.14 -3.3575,5.22375 -4.96,7.69625 -7.93125,12.2425 -6.6525,-0.13 -10.2125,0.2875 -16.29875,-0.515 -3.66125,-5.0725 -5.505,-7.8175 -9.16125,-13.40625 2.44125,-4.8725 3.8225,-7.52 6.81125,-13.17375 m -24.235,-17.05125 c 5.2575,0.36875 8.17125,0.5275 14.3325,0.80625 3.21375,6.17625 4.9075,9.30875 8.4875,15.35375 -0.6825,1.29625 -1.02125,1.94125 -1.6925,3.20625 -2.25375,4.2575 -3.20125,6.2225 -5.0575,9.9825 -6.06125,-0.715 -8.9525,-1.12125 -14.25,-2.00125 -2.11,-3.39375 -3.14375,-5.1175 -5.13375,-8.56625 -1.21875,-2.10875 -1.665,-3.2475 -2.62875,-5.455 2.22625,-5.0775 3.41375,-7.75125 5.9425,-13.32625 m 14.295,-31.39875 c 2.9525,5.92625 4.48875,9.00875 7.72875,15.2625 -3.24,6.25375 -4.77625,9.3425 -7.72875,15.265 -6.1525,-0.24625 -9.06625,-0.4025 -14.3175,-0.735 -2.72,-5.9475 -3.9775,-8.87875 -6.31625,-14.53 2.33875,-5.65125 3.59625,-8.58875 6.3125,-14.5325 5.255,-0.33625 8.16625,-0.47875 14.32125,-0.73 m 8.525,-17.02875 c -3.58,6.04875 -5.27375,9.1775 -8.4875,15.35125 -6.16125,0.285 -9.0725,0.44 -14.32875,0.805 -2.53125,-5.57 -3.72,-8.24125 -5.94625,-13.3175 2.53125,-5.8175 4.35875,-8.5425 7.7625,-14.02125 5.3025,-0.88625 8.19,-1.28875 14.2525,-2.00625 2.4075,4.88125 3.77375,7.5325 6.7475,13.18875 m 27.9975,-15.745 c -3.66625,5.32 -5.575,8.0825 -9.29875,14.145 -7.1175,0.1925 -10.67125,0.32125 -17.28375,0.705 -2.98875,-5.64625 -4.37,-8.29625 -6.81125,-13.1675 3.65625,-5.5925 5.5,-8.3425 9.1625,-13.41 6.08625,-0.7975 9.645,-0.37875 16.2975,-0.5125 2.9725,4.54375 4.57375,7.01625 7.93375,12.24 m 19.06125,-0.7475 c -7.01375,-0.0825 -10.57,-0.0825 -17.5825,0 -3.37375,-5.1925 -4.9875,-7.65125 -7.9775,-12.15125 3.65625,-4.62625 5.45,-6.73875 8.82625,-10.43625 6.345,-0.0362 9.54125,-0.0362 15.88375,0 3.38,3.6975 5.17,5.81 8.82625,10.43625 -2.995,4.5 -4.60125,6.95875 -7.97625,12.15125 m 28.05875,15.5975 c -6.61125,-0.38375 -10.165,-0.5125 -17.27875,-0.705 -3.725,-6.0625 -5.63625,-8.825 -9.2975,-14.14125 3.355,-5.2275 4.955,-7.7 7.9275,-12.24375 6.64875,0.13375 10.20875,-0.285 16.2975,0.5125 3.66125,5.0725 5.50625,7.8175 9.165,13.41 -2.44,4.87125 -3.82375,7.52125 -6.81375,13.1675 m 1.41875,0.895 c 2.86625,-5.4475 4.18375,-8.005 6.52375,-12.7325 0.0913,-0.1825 0.13375,-0.26875 0.2225,-0.45625 6.06125,0.7175 8.955,1.12 14.25375,2.00625 3.40375,5.47875 5.22875,8.20375 7.75875,14.02125 -2.2275,5.07625 -3.4125,7.7475 -5.94125,13.3175 -5.25625,-0.365 -8.17,-0.52 -14.32875,-0.805 -3.21625,-6.17375 -4.91,-9.3025 -8.48875,-15.35125 m -18.25125,31.39625 c -3.6425,-6.4 -5.51625,-9.6375 -9.23875,-15.99125 3.63625,-6.30625 5.4275,-9.42125 8.83375,-15.34125 7.13,0.18625 10.71625,0.30125 17.32375,0.6725 3.6,6.07125 5.3075,9.19875 8.55125,15.39625 -2.9725,5.92625 -4.5275,9.015 -7.78375,15.28125 -6.52875,-0.01 -10.40375,-0.01 -17.68625,-0.0175 m -5.925,23.53375 c -1.3125,-2.275 -1.97625,-3.425 -3.31375,-5.75 3.7225,-6.3525 5.595,-9.59625 9.23875,-15.99625 7.2825,-0.0125 11.1575,-0.015 17.68625,-0.02 3.25625,6.265 4.81125,9.35625 7.78375,15.28375 -3,5.73875 -4.57375,8.635 -7.88,14.26625 -0.26875,0.4575 -0.405,0.68625 -0.67125,1.14 -6.6075,0.37375 -10.19375,0.4825 -17.32375,0.6625 -2.155,-3.7425 -3.265,-5.67 -5.52,-9.58625 m -29.11625,5.13625 c 2.2675,-3.925 3.4325,-5.93 5.7825,-9.99375 7.3675,0.05 11.11,0.05 18.48,0 3.6425,6.30125 5.44,9.4125 8.865,15.32125 -1.41625,2.315 -2.12125,3.48625 -3.545,5.655 -2.31375,3.53875 -3.465,5.2525 -5.73125,8.56625 -7.0425,0.08 -10.61375,0.08 -17.65625,0 -3.65125,-5.3375 -5.5525,-8.13625 -9.27625,-14.22125 1.21375,-2.10125 1.83125,-3.17125 3.08125,-5.3275 m -4.995,-26.8825 c 3.6425,6.4 5.51375,9.64375 9.23875,15.99625 -1.33875,2.325 -2.0025,3.475 -3.31375,5.75 -2.25625,3.91625 -3.36625,5.84375 -5.52125,9.58625 -7.13,-0.18 -10.71375,-0.28875 -17.32125,-0.6625 -2.77375,-4.68125 -4.10875,-7.07625 -6.67125,-11.85125 -0.76125,-1.4225 -1.13625,-2.1325 -1.88,-3.555 2.97375,-5.9275 4.52625,-9.01875 7.78125,-15.28375 6.53125,0.005 10.40375,0.007 17.6875,0.02 m 9.24,-17.77875 c -3.725,6.35375 -5.5975,9.59125 -9.24,15.99125 -7.28375,0.008 -11.15625,0.008 -17.6875,0.0225 -3.255,-6.2675 -4.8075,-9.35625 -7.78125,-15.2825 3.24,-6.195 4.95,-9.32875 8.55125,-15.4 6.6075,-0.37125 10.19125,-0.48625 17.32125,-0.6725 3.40875,5.92 5.20125,9.035 8.83625,15.34125 m 20.02625,0.86625 c 3.725,6.36875 5.6,9.6125 9.25375,16.02 -3.65375,6.4125 -5.52875,9.64875 -9.25375,16.0225 -7.375,0.0425 -11.12125,0.0425 -18.50125,0 -3.7225,-6.37375 -5.595,-9.61 -9.24875,-16.0225 3.65375,-6.4075 5.52625,-9.65125 9.24875,-16.02 7.38,-0.0437 11.12625,-0.0437 18.50125,0 m -0.007,-1.76 c -7.37,-0.0437 -11.1125,-0.0437 -18.48125,0 -3.6425,-6.305 -5.43875,-9.41125 -8.86375,-15.31875 3.72375,-6.08 5.62125,-8.8775 9.27625,-14.2175 7.0425,-0.085 10.6125,-0.085 17.655,0 3.65125,5.34 5.55625,8.1375 9.28,14.2175 -3.4225,5.9075 -5.22,9.01375 -8.86625,15.31875 m -23.49875,-62.44 c 4.63,-0.81625 9.385,-1.26875 14.2525,-1.26875 25.08125,0 47.495,11.34125 62.43875,29.1625 0.265,0.31 0.5325,0.61625 0.79125,0.93625 -0.002,0.006 -0.005,0.0125 -0.007,0.0188 9.46,11.63625 15.79125,25.92125 17.6675,41.58125 -0.7775,2.8675 -1.47375,5.2325 -2.6725,9.07375 -3.23125,-0.0337 -5.24,-0.0412 -9.82,-0.0637 -2.29375,-5.6225 -3.53125,-8.55625 -6.205,-14.4725 2.4925,-5.56375 3.65875,-8.23125 5.8425,-13.29125 4.1125,0.655 6.20625,1.06125 8.9125,1.76625 -0.1825,-0.53125 -0.3725,-1.05125 -0.57,-1.58125 -2.4625,-0.64625 -4.54125,-1.05875 -8.38375,-1.69375 -2.47875,-5.8 -4.35625,-8.4825 -7.73125,-13.935 1.275,-3.1325 2.06125,-5.1225 2.96,-7.38375 -0.26,-0.32 -0.52,-0.63875 -0.78375,-0.955 -0.0763,-0.09 -0.1525,-0.18 -0.2275,-0.26875 -0.97,2.405 -1.79,4.4375 -3.15125,7.72625 -5.295,-0.90625 -8.1775,-1.3175 -14.21375,-2.06125 -3.64875,-5.55375 -5.49625,-8.2825 -9.1625,-13.30625 2.285,-4.0625 3.305,-5.88375 5.19,-9.22875 0.0725,-0.125 0.10625,-0.19625 0.17625,-0.3225 0.46875,0.07 0.91,0.13125 1.33625,0.19375 -1.23375,-0.7475 -2.4875,-1.45875 -3.75375,-2.14 0.35375,0.39375 0.7225,0.8075 1.11625,1.24875 -1.9625,3.3975 -3.02125,5.2575 -5.4175,9.44 -6.05875,-0.8025 -9.60375,-0.3675 -16.2225,-0.495 -3.6725,-4.58875 -5.475,-6.68125 -8.87375,-10.3275 2.915,-3.6025 4.26375,-5.1725 6.67375,-7.73375 0.51875,0.004 0.99125,0.002 1.4675,0.002 -1.02125,-0.2225 -2.0525,-0.41375 -3.08125,-0.60125 0.115,0.0888 0.2075,0.15375 0.33,0.245 -2.4325,2.485 -3.79625,4.02625 -6.73375,7.57625 -6.3,-0.0362 -9.47375,-0.0362 -15.77125,0 -1.47125,-1.77375 -2.17625,-2.6 -3.52375,-4.12375 -1.35,-1.51625 -1.99375,-2.20875 -3.21125,-3.4525 0.13125,-0.1 0.2375,-0.175 0.3625,-0.265 m 14.25375,-3.74875 c -46.37875,0 -83.97625,37.59625 -83.97625,83.97625 0,46.37875 37.5975,83.97625 83.97625,83.97625 46.37875,0 83.97625,-37.5975 83.97625,-83.97625 0,-46.38 -37.5975,-83.97625 -83.97625,-83.97625" />
  </g>
</svg>
